<svg width="30" height="30" viewBox="0 0 30 30" fill="none" xmlns="http://www.w3.org/2000/svg">
<g clip-path="url(#clip0_2_18)">
<path d="M28.8802 18.4092C28.9781 17.8378 29.0119 17.1558 28.9205 16.3594L28.6477 13.9917L28.4709 14.1848C28.4362 13.716 28.3555 13.2518 28.23 12.7988C28.7245 9.9 28.6758 6.13078 28.0688 1.52297L27.9914 0.9375L27.4111 1.01438C24.0605 1.46391 20.8997 2.90109 18.5095 4.53562C17.4253 4.30125 16.2572 4.17656 15 4.17656C13.7419 4.17656 12.5747 4.30125 11.4909 4.53562C9.10031 2.90156 5.93953 1.46391 2.58844 1.01438L2.00812 0.9375L1.93078 1.52344C1.32375 6.13125 1.27547 9.90047 1.76953 12.7992C1.64428 13.2523 1.56358 13.7165 1.52859 14.1853L1.35234 13.9922L1.07953 16.3594C0.987656 17.1558 1.02141 17.8378 1.11938 18.4092L0.9375 18.3698V19.725C0.9375 22.2792 2.75531 24.713 6.05625 26.5758C8.77359 28.1095 12.2006 29.0625 15 29.0625C17.7994 29.0625 21.2264 28.1095 23.9438 26.5758C27.2442 24.713 29.0625 22.2792 29.0625 19.725V18.3698L28.8802 18.4092ZM26.9831 2.27672C27.3614 5.35922 27.472 8.07094 27.3253 10.3509C27.3127 10.028 27.2559 9.70547 27.1322 9.40406L27.3305 9.375L26.542 8.01281C26.7005 7.08891 26.8195 5.4825 26.2931 3.57234C24.4673 4.33125 23.0587 5.65313 22.5305 6.19359C21.7744 5.68266 20.9367 5.26969 20.0245 4.95234C22.0003 3.7425 24.4191 2.71453 26.9831 2.27672ZM3.01687 2.27672C5.58141 2.71453 7.99969 3.7425 9.97594 4.95188C9.06422 5.26969 8.22656 5.68266 7.46953 6.19312C6.94172 5.65312 5.53219 4.33078 3.70734 3.57187C3.18047 5.48156 3.29953 7.0875 3.45797 8.01234L2.66906 9.375L2.86688 9.40453C2.74313 9.70594 2.68687 10.028 2.67375 10.3514C2.52797 8.07141 2.63812 5.35969 3.01687 2.27672ZM15 27.9637C9.85922 27.9637 2.01891 24.4491 2.01891 19.725L2.88516 19.9116C2.88516 19.9116 1.88297 18.8292 2.15297 16.4873L2.99484 17.4103C2.99484 17.4103 2.15297 15.0337 2.88516 12.8409L3.8175 13.5384C3.8175 13.5384 3.53438 12.6459 3.79453 12.0352L4.19719 12.3558C4.19719 12.3558 3.24281 10.2511 4.13016 9.44438C4.48969 10.65 4.91438 10.6683 4.93875 10.6683H4.94016C4.94016 10.6683 4.40297 9.73828 4.82109 9.34828C4.99219 9.62859 5.15156 9.72375 5.28 9.72375C5.47266 9.72375 5.59641 9.50953 5.58609 9.38297C5.56312 9.10359 5.67047 8.70891 4.41609 8.52328C4.58906 8.22469 4.97531 8.13609 5.37656 8.13609C5.97422 8.13609 6.60422 8.33484 6.60422 8.33484C6.60422 8.33484 6.56391 7.70578 5.73516 7.70578L5.685 7.70672C5.94563 7.31578 6.32719 7.20141 6.68344 7.20141C7.17844 7.20141 7.62375 7.42125 7.62375 7.42125L7.62094 7.42969C7.95682 7.17578 8.30985 6.94539 8.6775 6.74016C8.96859 7.40484 9.36094 7.70766 9.84094 8.59594C10.5286 7.32797 11.0311 6.59109 11.3123 5.70187C11.7407 5.59366 12.1742 5.50715 12.6112 5.44266C12.9745 7.07859 13.8089 8.34469 14.9991 10.5413C16.2066 8.31188 17.0297 7.065 17.3864 5.44172C17.8416 5.50781 18.2709 5.59734 18.6862 5.70187C18.9698 6.60094 19.4775 7.34437 20.1548 8.59594C20.6409 7.69875 21.0328 7.39828 21.3211 6.74016C21.6891 6.94473 22.0422 7.17516 22.3777 7.42969L22.3748 7.42125C22.3748 7.42125 22.8206 7.20141 23.3152 7.20141C23.6714 7.20141 24.053 7.31578 24.3141 7.70672L24.2639 7.70578C23.4352 7.70578 23.3948 8.33484 23.3948 8.33484C23.3948 8.33484 24.0248 8.13516 24.6225 8.13609C25.0228 8.13609 25.41 8.22469 25.582 8.52328C24.3286 8.70891 24.4359 9.10359 24.413 9.38297C24.4031 9.50953 24.5264 9.72375 24.7186 9.72375C24.8466 9.72375 25.0059 9.62859 25.1775 9.34828C25.5961 9.73828 25.0584 10.6683 25.0584 10.6683H25.0603C25.0842 10.6683 25.5089 10.65 25.868 9.44438C26.7563 10.2511 25.8019 12.3558 25.8019 12.3558L26.2045 12.0352C26.4647 12.6459 26.1816 13.5384 26.1816 13.5384L27.1134 12.8409C27.8452 15.0337 27.0038 17.4103 27.0038 17.4103L27.8452 16.4873C28.1161 18.8292 27.1134 19.9116 27.1134 19.9116L27.9797 19.725C27.9802 24.4491 20.1398 27.9637 15 27.9637Z" fill="#F48A18"/>
<path d="M15 20.1562C15.3487 20.1562 15.7823 20.0217 16.2366 19.5952C16.9561 18.9197 17.1656 18.1369 16.8947 17.8209C16.515 17.3775 15.3492 17.3437 15 17.3437C14.6522 17.3437 13.485 17.3775 13.1048 17.8209C12.8348 18.1369 13.0434 18.9197 13.7639 19.5952C14.2186 20.0217 14.6522 20.1562 15 20.1562ZM8.7014 18.2133C7.96593 18.2325 7.22343 18.1402 6.58312 17.8617C6.42765 17.7946 6.27991 17.7108 6.14249 17.6119C6.08085 17.568 6.02285 17.5193 5.96905 17.4661L5.94327 17.4366C5.94421 17.4366 5.94515 17.4394 5.94421 17.4394L5.93577 17.4258L5.88327 17.3133C5.74285 16.9849 5.63484 16.6436 5.56077 16.2942C5.40421 15.5995 5.3714 14.8753 5.55093 14.2158C5.7164 13.5666 6.12702 12.9478 6.62437 12.4753C7.12312 11.9967 7.77046 11.7061 8.45062 11.7253C8.61749 11.7319 8.79655 11.7511 8.95452 11.7905C9.13218 11.8336 9.29671 11.8837 9.45796 11.9527C9.78526 12.0884 10.0829 12.2868 10.3341 12.5367C10.8605 13.0312 11.2022 13.725 11.3916 14.4558C11.351 13.6733 11.0703 12.9223 10.5876 12.3052C10.3308 11.9915 10.0148 11.7314 9.65765 11.5397C9.4799 11.4433 9.29285 11.365 9.09937 11.3062C8.90018 11.2432 8.69504 11.2008 8.48718 11.1797C7.64343 11.0798 6.79171 11.4427 6.18046 11.9817C5.57062 12.532 5.10187 13.2197 4.87171 14.0353C4.66593 14.8448 4.71937 15.6787 4.9139 16.4494C5.01609 16.8366 5.14827 17.2083 5.32593 17.5744L5.39905 17.7145L5.42859 17.7623L5.47405 17.82C5.50218 17.8519 5.52187 17.872 5.54484 17.895C5.63437 17.9794 5.72296 18.0431 5.81437 18.1017C5.99859 18.2142 6.18749 18.3014 6.38015 18.3708C7.15359 18.6483 7.96359 18.6581 8.72952 18.5559C9.48816 18.438 10.2277 18.2194 10.9284 17.9058C10.1864 18.0689 9.4439 18.2109 8.7014 18.2133ZM23.82 11.9827C23.2092 11.4436 22.358 11.0808 21.5137 11.1806C21.3057 11.2017 21.1004 11.2441 20.9011 11.3072C20.7075 11.3657 20.5204 11.4439 20.3428 11.5406C19.9856 11.7324 19.6697 11.9925 19.4128 12.3061C18.9301 12.9233 18.6494 13.6742 18.6089 14.4567C18.7983 13.7259 19.14 13.0322 19.6664 12.5377C19.9176 12.2877 20.2152 12.0893 20.5425 11.9536C20.7057 11.8861 20.874 11.8318 21.0459 11.7914C21.2112 11.7532 21.3798 11.7314 21.5494 11.7262C22.2295 11.707 22.8769 11.9972 23.3756 12.4762C23.873 12.9487 24.2841 13.5675 24.4495 14.2167C24.6291 14.8758 24.5962 15.6 24.4397 16.2952C24.3647 16.6439 24.2555 16.9927 24.1167 17.3142L24.0647 17.4277C24.0609 17.4333 24.0562 17.4394 24.0562 17.4403C24.0553 17.4403 24.0562 17.4375 24.0572 17.4375L24.0314 17.467C23.9775 17.5202 23.9193 17.569 23.8575 17.6128C23.7202 17.7117 23.5726 17.7955 23.4173 17.8627C22.7766 18.1411 22.035 18.2334 21.2986 18.2142C20.5561 18.2114 19.8136 18.0694 19.072 17.9077C19.7725 18.2212 20.5117 18.4398 21.27 18.5578C22.0364 18.6605 22.8464 18.6502 23.6203 18.3727C23.8125 18.3033 24.0019 18.2161 24.1851 18.1036C24.2775 18.045 24.3656 17.9808 24.4551 17.8969C24.4791 17.8739 24.4983 17.8537 24.5264 17.8219L24.5714 17.7642L24.6014 17.7164L24.6736 17.5762C24.8522 17.2102 24.9839 16.8384 25.0866 16.4512C25.2806 15.6802 25.3336 14.8472 25.1287 14.0372C24.8986 13.2202 24.4298 12.5325 23.82 11.9827Z" fill="#F48A18"/>
<path d="M20.6259 17.3438C21.6615 17.3438 22.5009 16.3994 22.5009 15.2344C22.5009 14.0694 21.6615 13.125 20.6259 13.125C19.5904 13.125 18.7509 14.0694 18.7509 15.2344C18.7509 16.3994 19.5904 17.3438 20.6259 17.3438Z" fill="#F48A18"/>
<path d="M9.37595 17.3438C10.4115 17.3438 11.2509 16.3994 11.2509 15.2344C11.2509 14.0694 10.4115 13.125 9.37595 13.125C8.34041 13.125 7.50095 14.0694 7.50095 15.2344C7.50095 16.3994 8.34041 17.3438 9.37595 17.3438Z" fill="#F48A18"/>
<path d="M20.4408 21.1139C19.1995 20.873 17.3649 20.625 15 20.625C12.6361 20.625 10.8014 20.873 9.56016 21.1139C9.07688 21.2091 8.9072 21.5752 8.9072 21.8672C8.9072 24.5189 10.9186 27.1875 15 27.1875C19.0819 27.1875 21.0942 24.5189 21.0942 21.8672C21.0947 21.5752 20.9245 21.2091 20.4408 21.1139ZM15 26.25C13.8502 26.25 12.8344 26.002 11.9531 25.5788C12.8039 25.1231 13.8145 24.8438 15 24.8438C16.1864 24.8438 17.198 25.1231 18.0469 25.5788C17.167 26.002 16.1508 26.25 15 26.25Z" fill="#F48A18"/>
</g>
<defs>
<clipPath id="clip0_2_18">
<rect width="30" height="30" fill="white"/>
</clipPath>
</defs>
</svg>
